<?xml version="1.0" encoding="UTF-8"?>
<svg xmlns="http://www.w3.org/2000/svg" xmlns:xlink="http://www.w3.org/1999/xlink" width="75px" height="75px" viewBox="0 0 75 75" version="1.1">
<g id="surface1">
<path style=" stroke:none;fill-rule:nonzero;fill:rgb(8.235294%,11.764706%,23.921569%);fill-opacity:1;" d="M 0.0390625 0.0390625 L 75.203125 0.0390625 L 75.203125 75.203125 L 0.0390625 75.203125 Z M 0.0390625 0.0390625 "/>
<path style=" stroke:none;fill-rule:nonzero;fill:rgb(100%,100%,94.117647%);fill-opacity:1;" d="M 28.535156 35.730469 C 30.335938 37.089844 30.695312 39.652344 29.339844 41.453125 C 27.980469 43.253906 25.417969 43.613281 23.617188 42.257812 C 21.816406 40.898438 21.457031 38.335938 22.8125 36.535156 C 24.171875 34.734375 26.734375 34.375 28.535156 35.730469 Z M 28.535156 35.730469 "/>
<path style=" stroke:none;fill-rule:nonzero;fill:rgb(100%,100%,94.117647%);fill-opacity:1;" d="M 14.367188 47.742188 C 13.792969 48.507812 13.945312 49.59375 14.707031 50.171875 L 18.464844 53.003906 C 19.230469 53.578125 20.316406 53.425781 20.890625 52.660156 L 28.835938 42.117188 C 29.414062 41.355469 29.261719 40.265625 28.496094 39.691406 L 24.738281 36.859375 C 23.976562 36.285156 22.886719 36.4375 22.3125 37.203125 Z M 14.367188 47.742188 "/>
<path style=" stroke:none;fill-rule:nonzero;fill:rgb(100%,100%,94.117647%);fill-opacity:1;" d="M 17.410156 46.511719 C 19.664062 46.511719 21.496094 48.34375 21.496094 50.597656 C 21.496094 52.851562 19.664062 54.683594 17.410156 54.683594 C 15.15625 54.683594 13.324219 52.851562 13.324219 50.597656 C 13.324219 48.34375 15.15625 46.511719 17.410156 46.511719 Z M 17.410156 46.511719 "/>
<path style=" stroke:none;fill-rule:nonzero;fill:rgb(100%,100%,94.117647%);fill-opacity:1;" d="M 13.324219 51.527344 C 13.324219 50.570312 14.101562 49.792969 15.058594 49.792969 L 19.761719 49.792969 C 20.71875 49.792969 21.496094 50.570312 21.496094 51.527344 L 21.496094 70.199219 C 21.496094 71.15625 20.71875 71.933594 19.761719 71.933594 L 15.058594 71.933594 C 14.101562 71.933594 13.324219 71.15625 13.324219 70.199219 Z M 13.324219 51.527344 "/>
<path style=" stroke:none;fill-rule:nonzero;fill:rgb(100%,100%,94.117647%);fill-opacity:1;" d="M 45.945312 35.730469 C 44.144531 37.089844 43.785156 39.652344 45.144531 41.453125 C 46.5 43.253906 49.0625 43.613281 50.863281 42.257812 C 52.664062 40.898438 53.023438 38.335938 51.667969 36.535156 C 50.308594 34.734375 47.746094 34.375 45.945312 35.730469 Z M 45.945312 35.730469 "/>
<path style=" stroke:none;fill-rule:nonzero;fill:rgb(100%,100%,94.117647%);fill-opacity:1;" d="M 60.113281 47.742188 C 60.6875 48.507812 60.535156 49.59375 59.773438 50.171875 L 56.015625 53.003906 C 55.25 53.578125 54.164062 53.425781 53.589844 52.660156 L 45.644531 42.117188 C 45.066406 41.355469 45.21875 40.265625 45.984375 39.691406 L 49.742188 36.859375 C 50.507812 36.285156 51.59375 36.4375 52.167969 37.203125 Z M 60.113281 47.742188 "/>
<path style=" stroke:none;fill-rule:nonzero;fill:rgb(100%,100%,94.117647%);fill-opacity:1;" d="M 57.070312 46.511719 C 54.816406 46.511719 52.984375 48.34375 52.984375 50.597656 C 52.984375 52.851562 54.816406 54.683594 57.070312 54.683594 C 59.324219 54.683594 61.15625 52.851562 61.15625 50.597656 C 61.15625 48.34375 59.324219 46.511719 57.070312 46.511719 Z M 57.070312 46.511719 "/>
<path style=" stroke:none;fill-rule:nonzero;fill:rgb(100%,100%,94.117647%);fill-opacity:1;" d="M 61.15625 51.527344 C 61.15625 50.570312 60.378906 49.792969 59.421875 49.792969 L 54.71875 49.792969 C 53.761719 49.792969 52.984375 50.570312 52.984375 51.527344 L 52.984375 70.199219 C 52.984375 71.15625 53.761719 71.933594 54.71875 71.933594 L 59.421875 71.933594 C 60.378906 71.933594 61.15625 71.15625 61.15625 70.199219 Z M 61.15625 51.527344 "/>
<path style=" stroke:none;fill-rule:nonzero;fill:rgb(100%,100%,94.117647%);fill-opacity:1;" d="M 33.210938 34.578125 C 33.210938 33.621094 33.988281 32.84375 34.945312 32.84375 L 39.648438 32.84375 C 40.605469 32.84375 41.378906 33.621094 41.378906 34.578125 L 41.378906 36.011719 C 41.378906 36.96875 40.605469 37.746094 39.648438 37.746094 L 34.945312 37.746094 C 33.988281 37.746094 33.210938 36.96875 33.210938 36.011719 Z M 33.210938 34.578125 "/>
<path style=" stroke:none;fill-rule:nonzero;fill:rgb(100%,100%,94.117647%);fill-opacity:1;" d="M 37.5 10.253906 C 44.242188 10.253906 49.714844 15.726562 49.714844 22.46875 C 49.714844 29.210938 44.242188 34.679688 37.5 34.679688 C 30.757812 34.679688 25.285156 29.210938 25.285156 22.46875 C 25.285156 15.726562 30.757812 10.253906 37.5 10.253906 Z M 37.5 10.253906 "/>
<path style=" stroke:none;fill-rule:nonzero;fill:rgb(100%,100%,94.117647%);fill-opacity:1;" d="M 25.980469 38.171875 C 25.980469 37.214844 26.757812 36.4375 27.714844 36.4375 L 47.285156 36.4375 C 48.242188 36.4375 49.019531 37.214844 49.019531 38.171875 L 49.019531 73.472656 C 49.019531 74.429688 48.242188 75.203125 47.285156 75.203125 L 27.714844 75.203125 C 26.757812 75.203125 25.980469 74.429688 25.980469 73.472656 Z M 25.980469 38.171875 "/>
<path style=" stroke:none;fill-rule:nonzero;fill:rgb(54.117647%,55.686275%,58.823529%);fill-opacity:1;" d="M 49.800781 11.191406 L 40.800781 26.597656 L 49.800781 26.597656 Z M 49.800781 11.191406 "/>
<path style=" stroke:none;fill-rule:nonzero;fill:rgb(54.117647%,55.686275%,58.823529%);fill-opacity:1;" d="M 25.199219 11.214844 L 34.199219 26.621094 L 25.199219 26.621094 Z M 25.199219 11.214844 "/>
<path style=" stroke:none;fill-rule:nonzero;fill:rgb(54.117647%,55.686275%,58.823529%);fill-opacity:1;" d="M 39.070312 10.824219 L 40.703125 18.628906 L 34.167969 18.628906 L 35.800781 10.824219 L 37.433594 3.023438 Z M 39.070312 10.824219 "/>
<path style=" stroke:none;fill-rule:nonzero;fill:rgb(54.117647%,55.686275%,58.823529%);fill-opacity:1;" d="M 25.375 18.511719 L 49.855469 18.511719 L 49.855469 26.714844 L 25.375 26.714844 Z M 25.375 18.511719 "/>
<path style=" stroke:none;fill-rule:nonzero;fill:rgb(19.215686%,65.882353%,96.862745%);fill-opacity:1;" d="M 26.96875 20.890625 C 26.96875 19.933594 27.746094 19.15625 28.703125 19.15625 L 30.695312 19.15625 C 31.652344 19.15625 32.429688 19.933594 32.429688 20.890625 L 32.429688 24.339844 C 32.429688 25.296875 31.652344 26.074219 30.695312 26.074219 L 28.703125 26.074219 C 27.746094 26.074219 26.96875 25.296875 26.96875 24.339844 Z M 26.96875 20.890625 "/>
<path style=" stroke:none;fill-rule:nonzero;fill:rgb(19.215686%,65.882353%,96.862745%);fill-opacity:1;" d="M 42.570312 20.890625 C 42.570312 19.933594 43.347656 19.15625 44.304688 19.15625 L 46.296875 19.15625 C 47.253906 19.15625 48.03125 19.933594 48.03125 20.890625 L 48.03125 24.339844 C 48.03125 25.296875 47.253906 26.074219 46.296875 26.074219 L 44.304688 26.074219 C 43.347656 26.074219 42.570312 25.296875 42.570312 24.339844 Z M 42.570312 20.890625 "/>
<path style=" stroke:none;fill-rule:nonzero;fill:rgb(54.117647%,55.686275%,58.823529%);fill-opacity:1;" d="M 24.703125 64.804688 C 24.703125 63.847656 25.476562 63.070312 26.433594 63.070312 L 48.566406 63.070312 C 49.523438 63.070312 50.296875 63.847656 50.296875 64.804688 L 50.296875 69.507812 C 50.296875 70.464844 49.523438 71.242188 48.566406 71.242188 L 26.433594 71.242188 C 25.476562 71.242188 24.703125 70.464844 24.703125 69.507812 Z M 24.703125 64.804688 "/>
<path style=" stroke:none;fill-rule:nonzero;fill:rgb(54.117647%,55.686275%,58.823529%);fill-opacity:1;" d="M 25.941406 69.378906 C 25.941406 68.421875 26.714844 67.648438 27.671875 67.648438 L 47.570312 67.648438 C 48.527344 67.648438 49.304688 68.421875 49.304688 69.378906 L 49.304688 75.515625 C 49.304688 76.472656 48.527344 77.246094 47.570312 77.246094 L 27.671875 77.246094 C 26.714844 77.246094 25.941406 76.472656 25.941406 75.515625 Z M 25.941406 69.378906 "/>
<path style=" stroke:none;fill-rule:nonzero;fill:rgb(19.215686%,65.882353%,96.862745%);fill-opacity:1;" d="M 24.703125 65.296875 L 50.296875 65.296875 L 50.296875 69.015625 L 24.703125 69.015625 Z M 24.703125 65.296875 "/>
</g>
</svg>
