<?xml version="1.0" encoding="UTF-8" standalone="no" ?>
<!DOCTYPE svg PUBLIC "-//W3C//DTD SVG 1.1//EN" "http://www.w3.org/Graphics/SVG/1.1/DTD/svg11.dtd">
<svg xmlns="http://www.w3.org/2000/svg" xmlns:xlink="http://www.w3.org/1999/xlink" version="1.1" width="640" height="640" viewBox="0 0 640 640" xml:space="preserve">
<desc>Created with Fabric.js 5.3.0</desc>
<defs>
</defs>
<g transform="matrix(3.320224884 0 0 3.320224884 319.4788300733 319.826278499)" id="qqiNfLIrae1kfXMYH6E5e"  >
<path style="stroke: rgb(127,72,117); stroke-width: 0; stroke-dasharray: none; stroke-linecap: butt; stroke-dashoffset: 0; stroke-linejoin: miter; stroke-miterlimit: 4; fill: rgb(21,30,61); fill-rule: nonzero; opacity: 1;" vector-effect="non-scaling-stroke"  transform=" translate(0, 0)" d="M 0 -92.76873 C 51.20834 -92.76873 92.76873 -51.20834000000001 92.76873 0 C 92.76873 51.20834 51.20834000000001 92.76873 0 92.76873 C -51.20834 92.76873 -92.76873 51.20834000000001 -92.76873 0 C -92.76873 -51.20834 -51.20834000000001 -92.76873 0 -92.76873 z" stroke-linecap="round" />
</g>
<g transform="matrix(2.8071161098 0 0 2.8071161098 320 320)" id="S1oLeKxFHsRJ3Qb05rFLX"  >
<path style="stroke: rgb(127,72,117); stroke-width: 0; stroke-dasharray: none; stroke-linecap: butt; stroke-dashoffset: 0; stroke-linejoin: miter; stroke-miterlimit: 4; fill: rgb(255,255,240); fill-rule: nonzero; opacity: 1;" vector-effect="non-scaling-stroke"  transform=" translate(0, 0)" d="M 0 -92.76873 C 51.20834 -92.76873 92.76873 -51.20834000000001 92.76873 0 C 92.76873 51.20834 51.20834000000001 92.76873 0 92.76873 C -51.20834 92.76873 -92.76873 51.20834000000001 -92.76873 0 C -92.76873 -51.20834 -51.20834000000001 -92.76873 0 -92.76873 z" stroke-linecap="round" />
</g>
<g transform="matrix(1.3528645485 0 0 1.3528645485 357.1389686755 257.2475642048)" id="2Wb1IFXrA9G_ZM69LJ-rL"  >
<path style="stroke: rgb(205,167,233); stroke-width: 0; stroke-dasharray: none; stroke-linecap: butt; stroke-dashoffset: 0; stroke-linejoin: miter; stroke-miterlimit: 4; fill: rgb(21,30,61); fill-rule: nonzero; opacity: 1;" vector-effect="non-scaling-stroke"  transform=" translate(0, 0)" d="M -37.52443 -37.52443 L 37.52443 -37.52443 L 37.52443 37.52443 L -37.52443 37.52443 z" stroke-linecap="round" />
</g>
<g transform="matrix(1.3528645485 0 0 1.3528645485 486.894679696 257.2475609781)" id="KmdJRV18qzo_SZkzVWyOi"  >
<path style="stroke: rgb(205,167,233); stroke-width: 0; stroke-dasharray: none; stroke-linecap: butt; stroke-dashoffset: 0; stroke-linejoin: miter; stroke-miterlimit: 4; fill: rgb(21,30,61); fill-rule: nonzero; opacity: 1;" vector-effect="non-scaling-stroke"  transform=" translate(0, 0)" d="M -37.52443 -37.52443 L 37.52443 -37.52443 L 37.52443 37.52443 L -37.52443 37.52443 z" stroke-linecap="round" />
</g>
<g transform="matrix(1.3528645485 0 0 1.3528645485 486.894679696 342.9913177642)" id="KrZnqqW4AHyJVEGu8Jw3W"  >
<path style="stroke: rgb(205,167,233); stroke-width: 0; stroke-dasharray: none; stroke-linecap: butt; stroke-dashoffset: 0; stroke-linejoin: miter; stroke-miterlimit: 4; fill: rgb(21,30,61); fill-rule: nonzero; opacity: 1;" vector-effect="non-scaling-stroke"  transform=" translate(0, 0)" d="M -37.52443 -37.52443 L 37.52443 -37.52443 L 37.52443 37.52443 L -37.52443 37.52443 z" stroke-linecap="round" />
</g>
<g transform="matrix(1.3528645485 0 0 1.3528645485 486.894679696 414.6199703177)" id="oHwqcgRH7XC9yhs92nW34"  >
<path style="stroke: rgb(205,167,233); stroke-width: 0; stroke-dasharray: none; stroke-linecap: butt; stroke-dashoffset: 0; stroke-linejoin: miter; stroke-miterlimit: 4; fill: rgb(21,30,61); fill-rule: nonzero; opacity: 1;" vector-effect="non-scaling-stroke"  transform=" translate(0, 0)" d="M -37.52443 -37.52443 L 37.52443 -37.52443 L 37.52443 37.52443 L -37.52443 37.52443 z" stroke-linecap="round" />
</g>
<g transform="matrix(1.3528645485 0 0 1.3528645485 357.1389783557 353.9142251187)" id="8X7E1zs-WohIkw92VMZxO"  >
<path style="stroke: rgb(205,167,233); stroke-width: 0; stroke-dasharray: none; stroke-linecap: butt; stroke-dashoffset: 0; stroke-linejoin: miter; stroke-miterlimit: 4; fill: rgb(21,30,61); fill-rule: nonzero; opacity: 1;" vector-effect="non-scaling-stroke"  transform=" translate(0, 0)" d="M -37.52443 -37.52443 L 37.52443 -37.52443 L 37.52443 37.52443 L -37.52443 37.52443 z" stroke-linecap="round" />
</g>
<g transform="matrix(1.3528645485 0 0 1.3528645485 357.1389719022 414.6199703177)" id="47FMcJZBUixe5SX0oTKNm"  >
<path style="stroke: rgb(205,167,233); stroke-width: 0; stroke-dasharray: none; stroke-linecap: butt; stroke-dashoffset: 0; stroke-linejoin: miter; stroke-miterlimit: 4; fill: rgb(21,30,61); fill-rule: nonzero; opacity: 1;" vector-effect="non-scaling-stroke"  transform=" translate(0, 0)" d="M -37.52443 -37.52443 L 37.52443 -37.52443 L 37.52443 37.52443 L -37.52443 37.52443 z" stroke-linecap="round" />
</g>
<g transform="matrix(1 0 0 1 357.5244334743 336.3300776763)" id="DM8fUfHKSAaTMZ1_gSq0J"  >
<path style="stroke: rgb(205,167,233); stroke-width: 0; stroke-dasharray: none; stroke-linecap: butt; stroke-dashoffset: 0; stroke-linejoin: miter; stroke-miterlimit: 4; fill: rgb(49,168,247); fill-rule: nonzero; opacity: 1;" vector-effect="non-scaling-stroke"  transform=" translate(-37.52443, -37.52443)" d="M 0 0 L 75.04886 0 L 75.04886 75.04886 L 0 75.04886 z" stroke-linecap="round" />
</g>
<g transform="matrix(1 0 0 1 357.5244334743 261.2812176763)" id="LOyfCDeQB6llw-cSi7FRL"  >
<path style="stroke: rgb(205,167,233); stroke-width: 0; stroke-dasharray: none; stroke-linecap: butt; stroke-dashoffset: 0; stroke-linejoin: miter; stroke-miterlimit: 4; fill: rgb(49,168,247); fill-rule: nonzero; opacity: 1;" vector-effect="non-scaling-stroke"  transform=" translate(-37.52443, -37.52443)" d="M 0 0 L 75.04886 0 L 75.04886 75.04886 L 0 75.04886 z" stroke-linecap="round" />
</g>
<g transform="matrix(1 0 0 1 486.894679696 411.3789376763)" id="hUl4x8j67vwUqwHoI_sl8"  >
<path style="stroke: rgb(205,167,233); stroke-width: 0; stroke-dasharray: none; stroke-linecap: butt; stroke-dashoffset: 0; stroke-linejoin: miter; stroke-miterlimit: 4; fill: rgb(49,168,247); fill-rule: nonzero; opacity: 1;" vector-effect="non-scaling-stroke"  transform=" translate(-37.52443, -37.52443)" d="M 0 0 L 75.04886 0 L 75.04886 75.04886 L 0 75.04886 z" stroke-linecap="round" />
</g>
<g transform="matrix(1 0 0 1 486.894679696 336.3300776763)" id="gXGdcjq5lLAGo8PJp10-p"  >
<path style="stroke: rgb(205,167,233); stroke-width: 0; stroke-dasharray: none; stroke-linecap: butt; stroke-dashoffset: 0; stroke-linejoin: miter; stroke-miterlimit: 4; fill: rgb(49,168,247); fill-rule: nonzero; opacity: 1;" vector-effect="non-scaling-stroke"  transform=" translate(-37.52443, -37.52443)" d="M 0 0 L 75.04886 0 L 75.04886 75.04886 L 0 75.04886 z" stroke-linecap="round" />
</g>
<g transform="matrix(1 0 0 1 486.894679696 261.2812176763)" id="GtI1ct41HzHvb-3tGRTb6"  >
<path style="stroke: rgb(205,167,233); stroke-width: 0; stroke-dasharray: none; stroke-linecap: butt; stroke-dashoffset: 0; stroke-linejoin: miter; stroke-miterlimit: 4; fill: rgb(49,168,247); fill-rule: nonzero; opacity: 1;" vector-effect="non-scaling-stroke"  transform=" translate(-37.52443, -37.52443)" d="M 0 0 L 75.04886 0 L 75.04886 75.04886 L 0 75.04886 z" stroke-linecap="round" />
</g>
<g transform="matrix(1 0 0 1 357.5244317371 411.3789359392)" id="6BTw8VR8yPZXBQH3hv_3J"  >
<path style="stroke: rgb(205,167,233); stroke-width: 0; stroke-dasharray: none; stroke-linecap: butt; stroke-dashoffset: 0; stroke-linejoin: miter; stroke-miterlimit: 4; fill: rgb(49,168,247); fill-rule: nonzero; opacity: 1;" vector-effect="non-scaling-stroke"  transform=" translate(-37.5244282629, -37.5244282629)" d="M 0 0 L 75.04886 0 L 75.04886 75.04886 L 0 75.04886 z" stroke-linecap="round" />
</g>
</svg>