<?xml version="1.0" encoding="UTF-8" standalone="no" ?>
<!DOCTYPE svg PUBLIC "-//W3C//DTD SVG 1.1//EN" "http://www.w3.org/Graphics/SVG/1.1/DTD/svg11.dtd">
<svg xmlns="http://www.w3.org/2000/svg" xmlns:xlink="http://www.w3.org/1999/xlink" version="1.1" width="640" height="640" viewBox="0 0 640 640" xml:space="preserve">
<desc>Created with Fabric.js 5.3.0</desc>
<defs>
</defs>
<g transform="matrix(0.3300743146 0 0 0.3300743146 42.0863592478 42.4338076734)" id="qqiNfLIrae1kfXMYH6E5e"  >
<path style="stroke: rgb(127,72,117); stroke-width: 0; stroke-dasharray: none; stroke-linecap: butt; stroke-dashoffset: 0; stroke-linejoin: miter; stroke-miterlimit: 4; fill: rgb(21,30,61); fill-rule: nonzero; opacity: 1;" vector-effect="non-scaling-stroke"  transform=" translate(0, 0)" d="M 0 -92.76873 C 51.20834 -92.76873 92.76873 -51.20834000000001 92.76873 0 C 92.76873 51.20834 51.20834000000001 92.76873 0 92.76873 C -51.20834 92.76873 -92.76873 51.20834000000001 -92.76873 0 C -92.76873 -51.20834 -51.20834000000001 -92.76873 0 -92.76873 z" stroke-linecap="round" />
</g>
<g transform="matrix(0.1344926486 0 0 0.1344926486 45.8302769441 37.3870480155)" id="2Wb1IFXrA9G_ZM69LJ-rL"  >
<path style="stroke: rgb(205,167,233); stroke-width: 0; stroke-dasharray: none; stroke-linecap: butt; stroke-dashoffset: 0; stroke-linejoin: miter; stroke-miterlimit: 4; fill: rgb(21,30,61); fill-rule: nonzero; opacity: 1;" vector-effect="non-scaling-stroke"  transform=" translate(0, 0)" d="M -37.52443 -37.52443 L 37.52443 -37.52443 L 37.52443 37.52443 L -37.52443 37.52443 z" stroke-linecap="round" />
</g>
<g transform="matrix(0.2790645087 0 0 0.2790645087 42.138170439 42.4510778907)" id="S1oLeKxFHsRJ3Qb05rFLX"  >
<path style="stroke: rgb(127,72,117); stroke-width: 0; stroke-dasharray: none; stroke-linecap: butt; stroke-dashoffset: 0; stroke-linejoin: miter; stroke-miterlimit: 4; fill: rgb(255,255,240); fill-rule: nonzero; opacity: 1;" vector-effect="non-scaling-stroke"  transform=" translate(0, 0)" d="M 0 -92.76873 C 51.20834 -92.76873 92.76873 -51.20834000000001 92.76873 0 C 92.76873 51.20834 51.20834000000001 92.76873 0 92.76873 C -51.20834 92.76873 -92.76873 51.20834000000001 -92.76873 0 C -92.76873 -51.20834 -51.20834000000001 -92.76873 0 -92.76873 z" stroke-linecap="round" />
</g>
<g transform="matrix(0.0994132404 0 0 0.0994132404 45.8685959657 45.0410131059)" id="DM8fUfHKSAaTMZ1_gSq0J"  >
<path style="stroke: rgb(205,167,233); stroke-width: 0; stroke-dasharray: none; stroke-linecap: butt; stroke-dashoffset: 0; stroke-linejoin: miter; stroke-miterlimit: 4; fill: rgb(49,168,247); fill-rule: nonzero; opacity: 1;" vector-effect="non-scaling-stroke"  transform=" translate(0, 0)" d="M -37.52443 -37.52443 L 37.52443 -37.52443 L 37.52443 37.52443 L -37.52443 37.52443 z" stroke-linecap="round" />
</g>
<g transform="matrix(0.0994132404 0 0 0.0994132404 45.8685959657 37.5801627433)" id="LOyfCDeQB6llw-cSi7FRL"  >
<path style="stroke: rgb(205,167,233); stroke-width: 0; stroke-dasharray: none; stroke-linecap: butt; stroke-dashoffset: 0; stroke-linejoin: miter; stroke-miterlimit: 4; fill: rgb(49,168,247); fill-rule: nonzero; opacity: 1;" vector-effect="non-scaling-stroke"  transform=" translate(0, 0)" d="M -37.52443 -37.52443 L 37.52443 -37.52443 L 37.52443 37.52443 L -37.52443 37.52443 z" stroke-linecap="round" />
</g>
<g transform="matrix(0.0994132404 0 0 0.0994132404 58.6066591604 52.5018634686)" id="hUl4x8j67vwUqwHoI_sl8"  >
<path style="stroke: rgb(205,167,233); stroke-width: 0; stroke-dasharray: none; stroke-linecap: butt; stroke-dashoffset: 0; stroke-linejoin: miter; stroke-miterlimit: 4; fill: rgb(49,168,247); fill-rule: nonzero; opacity: 1;" vector-effect="non-scaling-stroke"  transform=" translate(0, 0)" d="M -37.52443 -37.52443 L 37.52443 -37.52443 L 37.52443 37.52443 L -37.52443 37.52443 z" stroke-linecap="round" />
</g>
<g transform="matrix(0.0994132404 0 0 0.0994132404 58.6066591604 45.0410131059)" id="gXGdcjq5lLAGo8PJp10-p"  >
<path style="stroke: rgb(205,167,233); stroke-width: 0; stroke-dasharray: none; stroke-linecap: butt; stroke-dashoffset: 0; stroke-linejoin: miter; stroke-miterlimit: 4; fill: rgb(49,168,247); fill-rule: nonzero; opacity: 1;" vector-effect="non-scaling-stroke"  transform=" translate(0, 0)" d="M -37.52443 -37.52443 L 37.52443 -37.52443 L 37.52443 37.52443 L -37.52443 37.52443 z" stroke-linecap="round" />
</g>
<g transform="matrix(0.0994132404 0 0 0.0994132404 58.6066591604 37.5801627433)" id="GtI1ct41HzHvb-3tGRTb6"  >
<path style="stroke: rgb(205,167,233); stroke-width: 0; stroke-dasharray: none; stroke-linecap: butt; stroke-dashoffset: 0; stroke-linejoin: miter; stroke-miterlimit: 4; fill: rgb(49,168,247); fill-rule: nonzero; opacity: 1;" vector-effect="non-scaling-stroke"  transform=" translate(0, 0)" d="M -37.52443 -37.52443 L 37.52443 -37.52443 L 37.52443 37.52443 L -37.52443 37.52443 z" stroke-linecap="round" />
</g>
<g transform="matrix(0.0994132404 0 0 0.0994132404 45.8685959657 52.5018634686)" id="6BTw8VR8yPZXBQH3hv_3J"  >
<path style="stroke: rgb(205,167,233); stroke-width: 0; stroke-dasharray: none; stroke-linecap: butt; stroke-dashoffset: 0; stroke-linejoin: miter; stroke-miterlimit: 4; fill: rgb(49,168,247); fill-rule: nonzero; opacity: 1;" vector-effect="non-scaling-stroke"  transform=" translate(0, 0)" d="M -37.52443 -37.52443 L 37.52443 -37.52443 L 37.52443 37.52443 L -37.52443 37.52443 z" stroke-linecap="round" />
</g>
</svg>